<svg viewBox="-1 -1 259 259" version="1.1" xmlns="http://www.w3.org/2000/svg" xmlns:xlink="http://www.w3.org/1999/xlink" preserveAspectRatio="xMidYMid" fill="rgb(0, 0, 0)">
    <g fill="rgb(0, 0, 0)">
        
    <path d="M128.001,0.667C57.311,0.667,0.000,57.971,0.000,128.664C0.000,199.354,57.311,256.662,128.001,256.662C198.691,256.662,256.000,199.354,256.000,128.664C256.000,57.971,198.689,0.667,128.001,0.667L128.001,0.667Z" fill="#DA4E31">

</path><path d="M128.001,240.227C107.889,240.227,91.582,226.792,91.582,210.223L164.420,210.223C164.420,226.789,148.114,240.227,128.001,240.227L128.001,240.227Z" fill="#fff">

</path><path d="M188.154,200.287L67.842,200.287L67.842,178.471L188.156,178.471L188.156,200.287L188.154,200.287Z" fill="#fff">

</path><path d="M187.722,167.242L68.185,167.242C67.787,166.784,67.381,166.332,66.997,165.867C54.682,150.913,51.781,143.107,48.965,135.151C48.917,134.889,63.898,138.212,74.521,140.602C74.521,140.602,79.987,141.866,87.979,143.323C80.306,134.329,75.750,122.895,75.750,111.207C75.750,85.549,95.429,63.128,88.329,45.006C95.239,45.568,102.630,59.589,103.129,81.511C110.475,71.359,113.549,52.821,113.549,41.455C113.549,29.686,121.304,16.016,129.061,15.548C122.146,26.944,130.852,36.713,138.591,60.948C141.493,70.051,141.123,85.371,143.363,95.086C144.107,74.908,147.576,45.466,160.377,35.302C154.730,48.102,161.213,64.120,165.647,71.820C172.801,84.244,177.137,93.656,177.137,111.458C177.137,123.394,172.730,134.631,165.297,143.416C173.749,141.830,179.586,140.400,179.586,140.400L207.035,135.045C207.038,135.043,203.049,151.446,187.722,167.242L187.722,167.242Z" fill="#fff">

</path></g>
</svg>