<svg viewBox="1 1 30 30" xmlns="http://www.w3.org/2000/svg" fill="none"><path d="M29.884,6.146 L16.742,29.646 C16.470,30.131,15.773,30.134,15.498,29.651 L2.096,6.148 C1.796,5.622,2.245,4.985,2.842,5.091 L15.998,7.443 L28.878,5.095 C29.473,4.987,29.925,5.619,29.630,6.146 Z" fill="url(#SJ26NfnB1x)"></path><path d="M22.264,2.007 L12.539,3.912 L11.941,14.016 C11.927,14.254,12.145,14.439,12.378,14.385 L15.085,13.761 C15.339,13.702,15.568,13.925,15.515,14.180 L14.711,18.119 C14.657,18.384,14.906,18.611,15.165,18.532 L16.837,18.024 C17.096,17.946,17.345,18.173,17.291,18.438 L16.012,24.626 C15.932,25.013,16.447,25.224,16.662,24.892 L16.517,25 L24.442,9.185 C24.575,8.920,24.346,8.618,24.055,8.674 L21.268,9.212 C21.006,9.263,20.783,9.019,20.857,8.762 L22.676,2.456 C22.750,2.200,22.527,1.955,22.264,2.007 Z" fill="url(#upvh0SBhfG)"></path><defs id="defs50" fill="none"><linearGradient id="SJ26NfnB1x" x1="6.0002" y1="32.9999" x2="235" y2="344" gradientUnits="userSpaceOnUse" gradientTransform="matrix(.07142 0 0 .07142 1.3398 1.8944)" fill="none"><stop stop-color="#41D1FF" id="stop38" fill="none"></stop><stop offset="1" stop-color="#BD34FE" id="stop40" fill="none"></stop></linearGradient><linearGradient id="upvh0SBhfG" x1="194.651" y1="8.8182" x2="236.076" y2="292.989" gradientUnits="userSpaceOnUse" gradientTransform="matrix(.07142 0 0 .07142 1.3398 1.8944)" fill="none"><stop stop-color="#FFEA83" id="stop43" fill="none"></stop><stop offset=".0833" stop-color="#FFDD35" id="stop45" fill="none"></stop><stop offset="1" stop-color="#FFA800" id="stop47" fill="none"></stop></linearGradient></defs></svg>