<svg xmlns="http://www.w3.org/2000/svg" version="1.1" viewBox="0 0 612 612" fill="rgb(0, 0, 0)">
	<!-- Block -->
	<path d="m376 0c0 1.08 0 2.16 0 3.3 0 38.76-31.42 70.17-70.17 70.17-38.76 0-70.17-31.42-70.17-70.17l0 0c0-1.14 0-2.22 0-3.3L0 0l0 612 612 0 0-612z" fill="#654ff0"></path>
	<!-- Letters -->
	
<path d="M142.160,329.810L182.720,329.810L210.410,477.280L210.910,477.280L244.190,329.810L282.130,329.810L312.190,479.090L312.780,479.090L344.340,329.810L384.120,329.810L332.430,546.500L292.180,546.500L262.370,399.030L261.590,399.030L229.680,546.500L188.680,546.500Z" fill="#fff"></path><path d="M429.850,329.810L493.790,329.810L557.290,546.500L515.450,546.500L501.640,498.280L428.800,498.280L418.140,546.500L377.390,546.500Z" fill="#fff"></path><path d="M454.190,383.220L436.500,462.720L491.560,462.720L471.250,383.220Z" fill="#654ff0"></path></svg>